<svg width="50" height="45" viewBox="0 0 50 45" fill="none" xmlns="http://www.w3.org/2000/svg">
<path d="M0 15.9023V15.4141C0 8.57812 4.88281 2.71875 11.6211 1.64453C16.0156 0.863281 20.6055 2.32812 23.8281 5.55078L25 6.625L26.0742 5.55078C29.2969 2.32812 33.8867 0.863281 38.2812 1.64453C45.0195 2.71875 50 8.57812 50 15.4141V15.9023C50 20.0039 48.2422 23.9102 45.3125 26.6445L27.6367 43.1484C26.9531 43.832 25.9766 44.125 25 44.125C23.9258 44.125 22.9492 43.832 22.2656 43.1484L4.58984 26.6445C1.66016 23.9102 0 20.0039 0 15.9023Z" fill="#E0C097"/>
</svg>
