<svg width="53" height="53" viewBox="0 0 53 53" fill="none" xmlns="http://www.w3.org/2000/svg">
<path d="M51.3281 45.6094C52.793 47.1719 52.793 49.6133 51.3281 51.1758C49.7656 52.6406 47.3242 52.6406 45.7617 51.1758L34.1406 39.457C30.1367 42.0938 25.2539 43.4609 19.9805 42.7773C10.9961 41.5078 3.76953 34.1836 2.59766 25.2969C0.9375 12.0156 12.168 0.785156 25.4492 2.44531C34.3359 3.61719 41.6602 10.8438 42.9297 19.8281C43.6133 25.1016 42.2461 29.9844 39.6094 33.8906L51.3281 45.6094ZM10.2148 22.5625C10.2148 29.4961 15.7812 35.0625 22.7148 35.0625C29.5508 35.0625 35.2148 29.4961 35.2148 22.5625C35.2148 15.7266 29.5508 10.0625 22.7148 10.0625C15.7812 10.0625 10.2148 15.7266 10.2148 22.5625Z" fill="#E0C097"/>
</svg>
