<svg width="50" height="41" viewBox="0 0 50 41" fill="none" xmlns="http://www.w3.org/2000/svg">
<path d="M44.8242 10.0938C44.8242 10.582 44.8242 10.9727 44.8242 11.4609C44.8242 25.0352 34.5703 40.5625 15.7227 40.5625C9.86328 40.5625 4.49219 38.9023 0 35.9727C0.78125 36.0703 1.5625 36.168 2.44141 36.168C7.22656 36.168 11.6211 34.5078 15.1367 31.7734C10.6445 31.6758 6.83594 28.7461 5.56641 24.6445C6.25 24.7422 6.83594 24.8398 7.51953 24.8398C8.39844 24.8398 9.375 24.6445 10.1562 24.4492C5.46875 23.4727 1.95312 19.3711 1.95312 14.3906V14.293C3.32031 15.0742 4.98047 15.4648 6.64062 15.5625C3.80859 13.707 2.05078 10.582 2.05078 7.06641C2.05078 5.11328 2.53906 3.35547 3.41797 1.89062C8.49609 8.04297 16.1133 12.1445 24.6094 12.6328C24.4141 11.8516 24.3164 11.0703 24.3164 10.2891C24.3164 4.625 28.9062 0.0351562 34.5703 0.0351562C37.5 0.0351562 40.1367 1.20703 42.0898 3.25781C44.3359 2.76953 46.582 1.89062 48.5352 0.71875C47.7539 3.16016 46.1914 5.11328 44.043 6.38281C46.0938 6.1875 48.1445 5.60156 49.9023 4.82031C48.5352 6.87109 46.7773 8.62891 44.8242 10.0938Z" fill="#E0C097"/>
</svg>
