<svg width="50" height="51" viewBox="0 0 50 51" fill="none" xmlns="http://www.w3.org/2000/svg">
<path d="M10.2539 18.1211C8.98438 16.9492 8.98438 14.8984 10.2539 13.7266L22.7539 1.22656C23.3398 0.640625 24.1211 0.25 25 0.25C25.7812 0.25 26.5625 0.640625 27.1484 1.22656L39.6484 13.7266C40.918 14.8984 40.918 16.9492 39.6484 18.1211C38.4766 19.3906 36.4258 19.3906 35.2539 18.1211L28.125 10.9922V34.625C28.125 36.3828 26.6602 37.75 25 37.75C23.2422 37.75 21.875 36.3828 21.875 34.625V10.9922L14.6484 18.1211C13.4766 19.3906 11.4258 19.3906 10.2539 18.1211ZM46.875 34.625C48.5352 34.625 50 36.0898 50 37.75V47.125C50 48.8828 48.5352 50.25 46.875 50.25H3.125C1.36719 50.25 0 48.8828 0 47.125V37.75C0 36.0898 1.36719 34.625 3.125 34.625H18.75C18.75 38.1406 21.4844 40.875 25 40.875C28.418 40.875 31.25 38.1406 31.25 34.625H46.875ZM42.1875 44.7812C43.457 44.7812 44.5312 43.8047 44.5312 42.4375C44.5312 41.168 43.457 40.0938 42.1875 40.0938C40.8203 40.0938 39.8438 41.168 39.8438 42.4375C39.8438 43.8047 40.8203 44.7812 42.1875 44.7812Z" fill="#E0C097"/>
</svg>
